# File created by Blade
# Date/Time:  Tue Jan 27 19:23:16 2015
# Frame Rate: 120.000 fps
#------------------------------------------------------
:FULLY-SPECIFIED
:DEGREES
4242
root 1.299566 32.242407 0.141909 -3.551017 -15.634059 -1.313997
Spine 2.259954 -10.417781 -3.892235
Head 11.904908 -2.592931 8.784429
LeftShoulder -15.122952 5.747553 32.345817
LeftArm -6.907228 27.580315 -104.170451
LeftForeArm 8.939067 -0.000000 26.447932
LeftHand 12.248398 0.000000 1.649727
LeftHandThumb1 -26.253704 0.000000 33.147579
RightShoulder -31.561798 -23.508011 -34.367974
RightArm 154.399304 108.142295 213.589811
RightForeArm 19.908157 -0.000000 113.655832
RightHand 24.535304 0.000000 -15.464506
RightHandThumb1 -24.326973 -0.000000 -32.862282
LeftUpLeg 15.310139 16.856108 7.974830
LeftLeg -0.187649 -0.000000 0.000000
LeftFoot -17.844047 12.137540 -27.435455
LeftToeBase 17.663847 -0.000000 -0.000000
RightUpLeg 7.396482 2.619241 7.808259
RightLeg 2.122890 -0.000000 -0.000000
RightFoot -10.063826 -9.783311 10.965769
RightToeBase 13.908397 -0.000000 -0.000000
4243
root 1.309026 32.243738 0.142424 -3.516995 -15.486089 -1.293726
Spine 2.269914 -10.104216 -3.848556
Head 11.826310 -2.671276 8.728415
LeftShoulder -15.335243 5.978506 32.397229
LeftArm -7.074420 25.966394 -103.689067
LeftForeArm 9.142631 -0.000000 27.895757
LeftHand 12.240228 -0.000000 2.841035
LeftHandThumb1 -26.253704 0.000000 33.147579
RightShoulder -31.664873 -23.772575 -34.213177
RightArm 154.923544 108.227240 214.194240
RightForeArm 19.821569 -0.000000 113.626242
RightHand 24.472579 0.000000 -15.842591
RightHandThumb1 -24.326973 -0.000000 -32.862282
LeftUpLeg 15.216191 16.806820 7.932861
LeftLeg -0.160261 -0.000000 0.000000
LeftFoot -17.813836 12.036605 -27.449505
LeftToeBase 17.738625 -0.000000 -0.000000
RightUpLeg 7.346181 2.533704 7.773768
RightLeg 2.145181 -0.000000 -0.000000
RightFoot -10.110021 -9.871778 10.923573
RightToeBase 13.961939 -0.000000 -0.000000
4244
root 1.317786 32.245038 0.143437 -3.490280 -15.327096 -1.269567
Spine 2.288718 -9.775967 -3.814293
Head 11.742336 -2.752523 8.685923
LeftShoulder -15.566859 6.302390 32.430269
LeftArm -7.177683 24.260536 -103.113238
LeftForeArm 8.896234 -0.000000 29.502164
LeftHand 12.189953 -0.000000 3.097762
LeftHandThumb1 -26.253704 0.000000 33.147579
RightShoulder -31.746135 -23.969973 -34.088267
RightArm 155.372044 108.366484 214.720842
RightForeArm 19.558830 -0.000000 113.570245
RightHand 24.429849 -0.000000 -15.737415
RightHandThumb1 -24.326973 -0.000000 -32.862282
LeftUpLeg 15.116293 16.716515 7.878742
LeftLeg -0.116383 -0.000000 0.000000
LeftFoot -17.779842 11.969177 -27.422061
LeftToeBase 17.767973 -0.000000 -0.000000
RightUpLeg 7.311440 2.440598 7.734620
RightLeg 2.150993 -0.000000 -0.000000
RightFoot -10.144560 -9.928176 10.946782
RightToeBase 13.868014 -0.000000 -0.000000
4245
root 1.329916 32.247238 0.145034 -3.466187 -15.135749 -1.245230
Spine 2.313567 -9.427614 -3.780671
Head 11.654287 -2.858961 8.648070
LeftShoulder -15.809152 6.653014 32.480558
LeftArm -7.286789 22.492755 -102.556399
LeftForeArm 8.833746 -0.000000 31.245198
LeftHand 11.971513 0.000000 3.009934
LeftHandThumb1 -26.253704 0.000000 33.147579
RightShoulder -31.702009 -23.827971 -34.156448
RightArm 154.930492 108.727887 214.367177
RightForeArm 19.378083 0.000000 113.507368
RightHand 24.369278 0.000000 -15.763974
RightHandThumb1 -24.326973 -0.000000 -32.862282
LeftUpLeg 15.009175 16.607491 7.815057
LeftLeg -0.077260 -0.000000 0.000000
LeftFoot -17.760765 11.895358 -27.431601
LeftToeBase 17.794960 -0.000000 -0.000000
RightUpLeg 7.281356 2.253497 7.678879
RightLeg 2.150278 -0.000000 -0.000000
RightFoot -10.157044 -9.923484 10.949328
RightToeBase 13.936139 -0.000000 -0.000000
4246
root 1.340580 32.248133 0.146168 -3.447038 -14.953597 -1.214940
Spine 2.330016 -8.974172 -3.751526
Head 11.591679 -3.060097 8.600398
LeftShoulder -15.922013 6.897238 32.529145
LeftArm -7.520606 20.607639 -101.973651
LeftForeArm 8.612782 -0.000000 33.152118
LeftHand 11.617978 -0.000000 3.307418
LeftHandThumb1 -26.253704 0.000000 33.147579
RightShoulder -31.782936 -23.818973 -34.176653
RightArm 155.030578 109.148578 214.564456
RightForeArm 18.836220 -0.000000 113.425116
RightHand 24.193115 -0.000000 -14.870556
RightHandThumb1 -24.326973 -0.000000 -32.862282
LeftUpLeg 14.914879 16.463515 7.740302
LeftLeg -0.054669 -0.000000 0.000000
LeftFoot -17.740350 11.877242 -27.398294
LeftToeBase 17.763436 -0.000000 -0.000000
RightUpLeg 7.264142 2.156257 7.633123
RightLeg 2.135712 -0.000000 -0.000000
RightFoot -10.186855 -10.022627 10.932237
RightToeBase 13.848426 -0.000000 -0.000000
4247
root 1.352140 32.249734 0.148012 -3.419002 -14.744054 -1.183370
Spine 2.337481 -8.618763 -3.706077
Head 11.535629 -3.163658 8.487964
LeftShoulder -16.131443 7.217565 32.532941
LeftArm -7.703191 18.733499 -101.350718
LeftForeArm 8.804696 -0.000000 35.029132
LeftHand 11.318216 -0.000000 3.883080
LeftHandThumb1 -26.253704 0.000000 33.147579
RightShoulder -31.967524 -24.114832 -34.070321
RightArm 156.247494 109.419261 215.829140
RightForeArm 18.341794 -0.000000 113.301875
RightHand 24.163485 0.000000 -15.489948
RightHandThumb1 -24.326973 -0.000000 -32.862282
LeftUpLeg 14.833611 16.122331 7.607047
LeftLeg -0.115077 -0.000000 0.000000
LeftFoot -17.775880 12.023196 -27.444270
LeftToeBase 17.898733 -0.000000 -0.000000
RightUpLeg 7.251867 2.032455 7.578999
RightLeg 2.095433 -0.000000 -0.000000
RightFoot -10.224197 -10.076615 10.977332
RightToeBase 13.855898 -0.000000 -0.000000
4248
root 1.363632 32.250892 0.147319 -3.389774 -14.492946 -1.155535
Spine 2.360627 -8.279740 -3.663302
Head 11.455956 -3.264796 8.391412
LeftShoulder -16.318947 7.428549 32.548549
LeftArm -7.991652 16.747322 -100.702755
LeftForeArm 8.991100 -0.000000 37.000872
LeftHand 10.829412 -0.000000 5.151937
LeftHandThumb1 -26.253704 0.000000 33.147579
RightShoulder -32.007086 -24.218443 -34.037595
RightArm 156.735133 109.695370 216.361031
RightForeArm 17.851301 -0.000000 113.171184
RightHand 24.024689 0.000000 -15.351679
RightHandThumb1 -24.326973 -0.000000 -32.862282
LeftUpLeg 14.701291 15.911383 7.520201
LeftLeg -0.081249 -0.000000 0.000000
LeftFoot -17.778125 11.996058 -27.459110
LeftToeBase 17.982616 -0.000000 -0.000000
RightUpLeg 7.241718 1.884172 7.531019
RightLeg 2.049426 -0.000000 -0.000000
RightFoot -10.264408 -10.159286 11.021520
RightToeBase 13.880837 -0.000000 -0.000000
4249
root 1.373787 32.252734 0.145276 -3.362970 -14.253448 -1.129201
Spine 2.376379 -7.821695 -3.634350
Head 11.406486 -3.474827 8.329124
LeftShoulder -16.387827 7.551276 32.605684
LeftArm -8.297648 14.582965 -100.016950
LeftForeArm 8.903475 0.000000 38.976153
LeftHand 10.544753 -0.000000 4.970001
LeftHandThumb1 -26.253704 0.000000 33.147579
RightShoulder -32.039953 -24.301413 -33.996114
RightArm 156.899042 109.993549 216.575254
RightForeArm 17.431133 -0.000000 113.010146
RightHand 23.842767 -0.000000 -14.626734
RightHandThumb1 -24.326973 -0.000000 -32.862282
LeftUpLeg 14.570823 15.743156 7.444613
LeftLeg -0.038083 -0.000000 0.000000
LeftFoot -17.740794 11.969087 -27.389285
LeftToeBase 17.916037 -0.000000 -0.000000
RightUpLeg 7.229482 1.768965 7.492618
RightLeg 2.006005 -0.000000 -0.000000
RightFoot -10.269730 -10.278195 10.998471
RightToeBase 13.757660 -0.000000 -0.000000
4250
root 1.386725 32.254724 0.147266 -3.319774 -13.999533 -1.100746
Spine 2.358996 -7.416343 -3.583948
Head 11.366385 -3.638974 8.236181
LeftShoulder -16.531484 7.800429 32.619091
LeftArm -8.503388 12.577855 -99.321102
LeftForeArm 9.253431 -0.000000 40.991739
LeftHand 10.160106 0.000000 4.950686
LeftHandThumb1 -26.253704 0.000000 33.147579
RightShoulder -32.038231 -24.360178 -33.953098
RightArm 157.220600 110.278592 216.841761
RightForeArm 17.219384 0.000000 112.814156
RightHand 23.746618 0.000000 -15.311723
RightHandThumb1 -24.326973 -0.000000 -32.862282
LeftUpLeg 14.441095 15.584496 7.362169
LeftLeg -0.026303 -0.000000 0.000000
LeftFoot -17.701024 11.930713 -27.342293
LeftToeBase 17.952981 -0.000000 -0.000000
RightUpLeg 7.219486 1.580788 7.431375
RightLeg 1.936269 -0.000000 -0.000000
RightFoot -10.283712 -10.309670 11.041049
RightToeBase 13.858673 -0.000000 -0.000000
4251
root 1.397772 32.256927 0.147241 -3.261918 -13.729676 -1.077667
Spine 2.317988 -7.048517 -3.552579
Head 11.354824 -3.769469 8.173364
LeftShoulder -16.657460 8.010601 32.668066
LeftArm -8.755471 10.443927 -98.605408
LeftForeArm 9.582013 0.000000 42.997712
LeftHand 9.745753 -0.000000 5.073912
LeftHandThumb1 -26.253704 0.000000 33.147579
RightShoulder -31.952477 -24.409538 -33.950327
RightArm 157.560231 110.622734 217.179873
RightForeArm 16.509836 -0.000000 112.545414
RightHand 23.596050 -0.000000 -14.775412
RightHandThumb1 -24.326973 -0.000000 -32.862282
LeftUpLeg 14.288312 15.428637 7.290740
LeftLeg -0.002006 -0.000000 0.000000
LeftFoot -17.657843 11.857876 -27.297914
LeftToeBase 18.030985 -0.000000 -0.000000
RightUpLeg 7.188525 1.419080 7.382579
RightLeg 1.882300 -0.000000 -0.000000
RightFoot -10.301606 -10.372230 11.082419
RightToeBase 13.844256 -0.000000 -0.000000
